<svg width="118" height="115" viewBox="0 0 118 115" fill="none" xmlns="http://www.w3.org/2000/svg">
<path d="M80.0103 0.657306C100.01 2.15764 120.01 13.1537 117.008 14.6551C114.006 16.1565 86.0103 33.1552 88.5084 35.6552C91.0066 38.1552 93.3115 41.6413 95.0103 46.1552C96.8196 50.9625 98.0104 51.6552 97.0103 59.1552C96.0103 66.6552 91.2901 43.2953 83.0084 37.6552C75.3752 32.4566 69.2415 31.9529 60.0084 32.1552C51.9602 32.3315 46.5889 32.5155 40.0103 37.1552C33.9442 41.4334 29.5066 45.1552 29.0084 52.6552C28.5103 60.1552 34.273 72.8162 32.5084 85.6551C31.6573 91.8484 30.5103 98.153 28.5103 100.654C26.5103 103.154 47.0103 96.1551 45.0084 99.1551C43.0066 102.155 38.7864 104.213 34.0103 105.655C28.2149 107.405 13.5084 108.154 18.5103 104.154C23.5121 100.154 24.7815 90.1513 26.0084 79.6551C27.3717 67.9928 21.0103 59.1552 24.0084 49.6552C27.0066 40.1552 30.2395 37.7875 37.0103 33.1552C44.6709 27.914 50.7446 27.7351 60.0084 27.1551C68.0103 26.6542 78.0103 29.6542 81.5103 29.6542C85.0103 29.6542 96.0066 17.1551 99.0084 14.1551C102.01 11.1551 74.9476 4.66713 59.0084 5.65514C50.4474 6.18581 45.4151 6.82544 37.5103 10.1551C29.4748 13.5399 24.9599 16.2811 19.0103 22.6551C11.6811 30.5073 7.84373 36.7965 5.01025 47.1572C1.76353 59.029 6.51036 81.153 5.51031 78.6551C4.51025 76.1572 2.01706 69.6875 1.01031 63.6551C-0.307568 55.7586 -0.365657 51.0418 1.01031 43.1552C2.32644 35.6115 3.52047 31.1913 7.51031 24.6551C12.7663 16.0449 17.8301 12.2948 26.5103 7.15515C38.9395 -0.204312 60.0103 -0.843026 80.0103 0.657306Z" fill="white"/>
<path d="M64.9997 57.0012C67.4997 46.002 80.2371 65.9986 90 66.0001C91 66.0002 94.5 66.5001 94.5 66.5001C94.5 66.5001 105.5 106.001 104.5 109.999C103.5 113.998 90.6166 114.021 81.4997 113.999C74.4028 113.982 70.0315 114.274 63.4997 111.499C56.8479 108.673 50.4995 103.498 48.9997 99.9991C47.4999 96.5006 60.4151 108.399 68.9997 109.999C77.5843 111.599 94.9994 108.998 97.9997 107.499C101 106.001 89.9994 74.0002 89.4997 73.0004C89 72.0006 62.4997 68.0004 64.9997 57.0012Z" fill="white"/>
</svg>
